<?xml version="1.0" encoding="utf-8"?>
<!-- Generator: Adobe Illustrator 16.0.0, SVG Export Plug-In . SVG Version: 6.00 Build 0)  -->
<!DOCTYPE svg PUBLIC "-//W3C//DTD SVG 1.1//EN" "http://www.w3.org/Graphics/SVG/1.1/DTD/svg11.dtd">
<svg version="1.1" id="Слой_1" xmlns="http://www.w3.org/2000/svg" xmlns:xlink="http://www.w3.org/1999/xlink" x="0px" y="0px"
	 width="300px" height="280px" viewBox="156 361.168 300 280" enable-background="new 156 361.168 300 280" xml:space="preserve">
<path d="M370.649,392.624l1.809-0.222l0.184-3.984v-3.652l-0.257-2.547l0.333-2.768l0.662-4.244l2.99-1.477l3.837,0.405l5.72,2.326
	l3.174,1.254l2.547,1.697l0.849,1.071l1.476-2.547l0.959,0.405l-0.517,3.543v2.583l0.812,3.174l0.371,2.104l-1.035,0.85
	l-4.427-0.627l-2.325,0.627l-1.919,1.696l-0.628,3.173l1.069,2.953l-0.626,2.768l-0.85,3.616l0.406,3.174l1.92,2.103l0.515,3.8
	l1.071,2.659v2.656l-2.287,1.476l2.103,3.69l-0.664-2.99h1.107l1.254-1.732l0.223-2.954l-0.738-1.18l-1.07-1.771v-2.362l0.369-2.104
	l-1.588-2.104l-0.627-2.323l0.222-3.396l0.849-2.545l-0.627-1.698l0.627-4.021l2.952-0.96l3.433-0.221h1.881l0.628,5.165
	l1.919,6.902l1.476,7.823l1.07,1.476l0.405,5.092l1.698,5.093l4.243,9.962l4.465,9.743l0.627,2.546l2.104,2.544l7.196,12.916
	l3.616,5.315l2.104,2.951l0.405,3.8l-0.627,1.921l-0.628-1.478l0.406-2.324l-1.697-1.476l-1.071,1.918l0.222,2.546l0.407,1.92
	l0.848,2.546l-0.626,4.134l-0.851-2.989h-0.848l-0.849-2.252l-1.256-2.841l-1.254-3.839l0.406-2.768l-1.476-1.696l0.626-1.477
	l-0.221-3.173l-2.547-1.478l-0.294,2.104l0.849,2.952v3.432l1.514,3.801l1.475,3.801l1.735,3.173l3.615,6.976l1.292,4.649
	l2.769,5.092l2.324,6.162l2.545,5.093l0.85,4.613l2.104,6.198l2.546,5.498l1.919,4.022l2.951,5.313l0.333,7.418l1.107,3.433v4.428
	v6.126l-1.623,5.977v5.462l-1.071,5.313l-0.959,7.381v4.723v4.097l-1.217,1.144v-1.55l-1.477-0.848l-0.997,1.916l-1.991,1.736v1.622
	v2.582l-1.994,0.851l0.886,7.195l-2.104,1.919l-1.253,2.213l-0.408,2.18h1.255l0.85-2.4l1.586-1.511l1.145-0.517v1.327l-1.477,1.919
	l-1.292,2.546l-1.032,2.325l-1.697,1.918l-2.104,2.547l-4.022,3.801l-1.697,1.255l-0.627-1.071l3.173-2.768l2.029-2.767l1.92-2.583
	v-3.764l-2.843,0.922h-2.361l-1.254,1.957l-2.658,0.921l-1.771-2.878v1.809l-1.217-1.07l-4.022-0.369v1.402
	c0,0-2.362,0.627-2.99,0.848c-0.627,0.223-2.619,0-2.619,0s-2.73-1.696-3.063-1.918s-2.214-1.918-2.214-1.918l0.959-4.649
	l1.071-1.033v-1.255l-1.108-1.919l-1.586-4.022l1.734-1.477l-2.436-0.848l-0.222-1.735v-1.66l-1.734-1.698l2.029-1.475l-1.66-0.627
	l-1.477,2.102l-0.85-3.062l-1.143-1.255H395.3l-2.251-1.624h-1.622v-1.255l-1.772-1.144l-1.624-0.738l-2.065,0.738l-1.071-0.109
	l-1.697-2.952l-1.477-4.023l-1.07-7.823l-1.918-6.569l-1.255-0.222l-2.102-1.475l-3.507-4.023l0.995,3.433v2.065l-2.471,1.256
	l-3.581-1.918l-0.628-3.359l1.292,1.809l1.329,1.772h1.661l0.222-2.511c0,0-0.85-2.066-1.92-2.472s-0.222-2.362-0.222-2.362
	l-0.626-1.918l-1.256-0.444l-1.254,2.325c0,0-0.848-2.546-1.697-2.951c-0.849-0.406,0.405-2.547,0.405-2.547l1.476,0.296l2.03,1.291
	h1.218h1.661l1.069-4.465l-1.069-2.14l2.546-3.839l-2.325,1.477l-2.251-1.069l-1.328,0.221l-0.223,2.657l1.551,2.767h-2.435h-2.952
	l-2.105-3.653l-1.77-2.878l-1.698-4.279l-1.254-1.514l-0.405-3.838l-2.325-2.14l-0.406-3.801l-1.069-2.547l-1.698-0.849l1.07,3.396
	l-2.104-1.919l-0.405-2.545l-2.325-3.359l1.918,0.295h2.03h1.329l0.849-3.321l1.697-2.066l2.436-4.059l1.734-1.882v-2.843v-1.844
	h-1.846l-0.222,1.919l0.222,2.065l-1.918-0.441l-1.698-0.222l0.849-2.546l-0.849-1.918l-1.918-2.104l-1.698-0.849l-1.069,1.697
	l-1.699,1.477l1.699,0.848l1.918,0.85l1.254,1.106l-0.848,3.137l-0.406,1.809l-0.664,2.104h-2.03h-1.144l-1.475-3.212l-1.699-1.475
	l-0.849-2.289l-0.406-3.652l1.255-2.99l1.255-2.768l-0.221-2.951l1.919-3.396l0.405-2.952l0.849-3.8l1.476-2.547l-0.22-3.8
	l-0.223-1.92l0.851-1.697l1.068-2.029l-0.479-3.285h-0.589l-0.851-1.29l-1.254-1.329l0.7-1.032h1.845l-0.849-1.365l-0.996-1.847
	h-1.733l-0.85-1.217l0.406-1.623l0.849-1.734l-1.697-2.029l-0.627-2.289h-2.14l-2.693-1.216h-2.843h-1.809l-0.554-3.729
	l-1.254-1.107h-2.066l-1.254-2.25l-0.629-3.175l-1.66-1.438h-1.734l-2.655-2.104l-1.697-1.107v-5.865l-0.813-0.997h-1.66
	l-0.221-1.733l-1.477-0.407l-1.365-0.22l-1.329-1.256v-3.727l-3.063-2.546l-2.547-2.547l-3.283-1.254l-2.619-1.255l-2.325-1.699
	l-1.07-0.959l-1.661,0.186H296l-0.996-0.996l-1.07,1.401l-1.697-0.222l-1.477-0.848l-0.85,1.254l-2.103,0.628l-1.255,0.738
	l0.185,2.103h-1.696l-1.07,0.997l1.807,0.222l1.33,0.369v1.697l-1.883,0.405l-4.059-0.627l-4.43,2.545l-4.427,2.104l-2.325,2.104
	l-2.546,0.222l0.443-2.104l-1.44,0.405l-1.513,1.478l-1.918,0.222l-0.222,2.435l-2.287,0.407h-2.584l0.848,1.144l1.071,1.401
	l2.952-0.442l10.369-4.243l-1.477,1.254l-1.919,1.476l-1.697,0.96l-5.978,2.509h-2.693l-2.547-2.066l-1.477-1.771l-3.615-0.147
	l-0.553,1.956h-2.178l0.184-2.104l1.955-1.698l0.223-2.508l-1.254-2.767l-1.92-3.101l-2.214-1.55h-2.029l-0.812-1.809l-4.908-2.842
	l2.104-0.442l1.918,0.924l2.51,2.546h1.918l0.074-1.625h-1.992l-0.85-1.697l-1.586-1.143h-1.218h-2.436h-0.812h-1.809l-1.07-1.662
	l0.406-0.959l1.07-1.291l1.07-1.07l1.254-1.07l1.92,0.221l0.627-2.214l0.553-1.623H240.5l-0.221,2.14l-1.697,0.48l-1.476,0.405
	l-1.255-0.221l-1.256-0.849l-2.324-0.443l-1.07,0.627l1.255,2.104l1.698,0.223l0.627,1.476l-1.254,1.069l-1.92-1.254l-2.104-0.85
	l-2.325-1.476l-11.032-3.801l-6.568-1.255l-4.65-0.405l2.104-0.85l2.104-0.406l3.174,0.85l1.919-0.628l1.919-0.627l2.324,0.627
	l1.919,1.255l1.255-0.627l-1.697-1.919l-2.104-1.255l-2.104-0.627l-2.324,0.405l-1.698,1.07l-2.103-0.221l0.221-1.071l-1.07-0.626
	l-1.697-0.221l-0.627,1.476l-2.104,0.848l-1.477-0.222l0.223,2.325l-2.104-0.222l-2.952,0.222l-2.951,0.406l-3.174,0.849
	l-3.615,0.222l-3.396,1.069l-1.697-0.849l1.07-1.476l1.476-0.848l2.104-0.223l2.104-0.85l1.918-1.069l-1.254-0.628l-2.104-1.07
	l-0.221-1.253l0.626-1.698l-1.07-0.849l-0.628,2.103l-0.848,2.105l-0.959,1.254l-1.107-0.369v-2.399l-1.514-1.918l-0.922-0.407
	l0.222,2.104l0.664,1.069l-0.406,2.324l-0.405,2.548l-0.222,1.918l-1.255,0.849l-1.697-0.332l-0.074-1.328h-1.402l-0.848,0.923
	l-0.555,1.476h-1.771l-3.174,0.886l0.222-1.586l1.477-1.625l0.811-1.697h1.625l0.848-1.55l-1.069-0.442l-1.698-0.222l-1.07-2.141
	l0.111-2.141l1.144-1.586v-2.215l-0.295-2.176l-2.251-1.219l-1.255-1.475l-1.587-1.699l-2.693-1.291v-1.624v-2.397
	c1.217-1.255,0.406-3.248,0.406-3.248h96.864l1.587,2.436v1.623v2.842v3.174l2.436,1.66h6.016l90.296,5.794l1.513,1.992l1.438,2.288
	v2.177l1.366,2.583L370.649,392.624z M441.205,597.093l-0.996,1.477l-0.997,2.324v1.733l0.997-1.513l0.996-2.104V597.093z
	 M419.138,621.927l-1.661,2.472l-1.254,1.219h1.623l1.219-0.997v-1.033L419.138,621.927z M412.977,627.24h-2.438l-0.921,1.217h1.734
	L412.977,627.24z M400.467,630.856v1.218l1.327-0.59L400.467,630.856z M368.178,634.104v2.029h2.436v-2.029l-1.217-0.112
	L368.178,634.104z M380.281,634.104v2.435h3.211l2.36-0.517l1.92-0.996l3.173-0.997l1.478-1.919l2.323-1.218l2.251,1.218
	l1.808-0.589v-1.81h-1.586l-0.737-1.624h-1.66l-1.071,1.366l-1.254,0.147l-2.73,1.329l-1.365,0.591v0.589l-2.03,2.03h-2.435h-1.625
	l-0.737-1.956L380.281,634.104z M386.223,631.041l1.33,0.443v-0.997h-1.221L386.223,631.041z M383.936,582.073v1.219h2.435
	l-0.038-1.219H383.936z M275.408,418.714h2.843l0.885-2.437h-1.697L275.408,418.714z M247.438,414.322l-1.328,1.955l1.219,4.021
	h1.476l-1.329-2.988l1.329-2.178L247.438,414.322z"/>
</svg>
